<svg version="1.2" baseProfile="tiny-ps" xmlns="http://www.w3.org/2000/svg" viewBox="0 0 943 395" width="943" height="395">
	<title>letters</title>
	<style>
		tspan { white-space:pre }
		.shp0 { fill: #141414 } 
		.shp1 { fill: #dc0000 } 
		.shp2 { fill: #ffffff } 
	</style>
	<path id="Forma 4" class="shp0" d="M0.5 395.05L90.42 0.14L942.46 118.53L824.81 387.55L0.5 395.05Z" />
	<g id="bg">
		<path id="red circle" class="shp1" d="M284.37 67C344.78 67 393.75 115.97 393.75 176.37C393.75 236.78 344.78 285.75 284.37 285.75C223.97 285.75 175 236.78 175 176.37C175 115.97 223.97 67 284.37 67Z" />
	</g>
	<g id="letters">
		<path id="eishin" class="shp2" d="M736 260L736 205L748 205L785 243L785 205L797 205L797 260L785 260L748 222L748 260L736 260ZM639 205L651 205L651 226L688 226L688 205L700 205L700 260L688 260L688 237L651 237L651 260L639 260L639 205ZM566 205L627 205L627 217L578 217L578 226L627 226L627 260L566 260L566 249L615 249L615 237L566 237L566 205ZM469 260L469 205L530 205L530 217L481 217L481 226L530 226L530 237L481 237L481 249L530 249L530 260L469 260ZM542 205L554 205L554 260L542 260L542 205ZM711 205L723 205L723 260L711 260L711 205Z" />
		<path id="S" class="shp2" d="M209 196C206.1 188.73 210.45 172.38 225 159C258.41 128.27 338.67 119.02 347 118C372.73 114.86 413.11 112.86 441 113C478.37 113.19 517.1 113.54 523 116C528.65 118.36 531.12 122.01 531 124C529.68 145.08 482.21 157.07 480 154C477.89 151.06 486.93 148.93 475 142C472.71 140.67 444.77 141.52 428 142C357.31 144.04 237.01 158.43 241 189C243.45 207.79 281.74 209.56 347 221C382.99 227.31 427.21 242.32 439 247C466.94 258.09 460.36 265.98 459 273C453.04 303.78 368.55 320.08 351 322C177.32 341.02 120.55 323.17 121.45 316.25C123.35 301.64 146.8 291.34 150 289C152.78 286.97 154.94 288.8 157 290C160.61 292.1 161.28 296.93 162 297C250.53 305.91 321.02 301.54 370 292C450.84 276.26 449.4 257.81 367 241C352.11 237.96 293.33 226.34 269 222C251.08 218.8 215.76 212.97 209 196Z" />
	</g>
</svg>